<?xml version="1.0" encoding="UTF-8" standalone="no"?>
<!-- Created with Inkscape (http://www.inkscape.org/) -->

<svg
   width="210mm"
   height="297mm"
   viewBox="0 0 210 297"
   version="1.1"
   id="svg2351"
   inkscape:version="1.1.1 (3bf5ae0d25, 2021-09-20)"
   sodipodi:docname="cancel_intermediate_boundary_interrupting.svg"
   xmlns:inkscape="http://www.inkscape.org/namespaces/inkscape"
   xmlns:sodipodi="http://sodipodi.sourceforge.net/DTD/sodipodi-0.dtd"
   xmlns="http://www.w3.org/2000/svg"
   xmlns:svg="http://www.w3.org/2000/svg">
  <sodipodi:namedview
     id="namedview2353"
     pagecolor="#ffffff"
     bordercolor="#111111"
     borderopacity="1"
     inkscape:pageshadow="0"
     inkscape:pageopacity="0"
     inkscape:pagecheckerboard="1"
     inkscape:document-units="mm"
     showgrid="false"
     inkscape:zoom="0.64052329"
     inkscape:cx="396.55076"
     inkscape:cy="561.25984"
     inkscape:window-width="2560"
     inkscape:window-height="1377"
     inkscape:window-x="2552"
     inkscape:window-y="-8"
     inkscape:window-maximized="1"
     inkscape:current-layer="layer1" />
  <defs
     id="defs2348" />
  <g
     inkscape:label="Ebene 1"
     inkscape:groupmode="layer"
     id="layer1">
    <ellipse
       style="fill:#ffffff;stroke:#000000;stroke-width:1;stroke-miterlimit:4;stroke-dasharray:none;stroke-dashoffset:0;stroke-opacity:1"
       id="path31"
       cx="99.137688"
       cy="135.0751"
       rx="32.839001"
       ry="32.839359" />
    <ellipse
       style="fill:#ffffff;stroke:#000000;stroke-width:0.945794;stroke-miterlimit:4;stroke-dasharray:none;stroke-dashoffset:0;stroke-opacity:1"
       id="path31-7"
       cx="99.292587"
       cy="134.92023"
       rx="31.058901"
       ry="31.059238" />
    <path
       style="fill:#000000;stroke-width:0.0841114"
       d="m 83.255664,156.26767 c -1.0149,-0.24565 -1.39869,-0.52811 -3.29709,-2.4265 -1.93139,-1.9314 -2.18163,-2.27776 -2.44094,-3.37858 -0.24234,-1.02881 -0.0368,-2.25595 0.53399,-3.18757 0.11336,-0.18505 2.91746,-3.05219 6.23132,-6.37144 l 6.02521,-6.035 -6.02521,-6.03499 c -3.31386,-3.31925 -6.11796,-6.1864 -6.23132,-6.37144 -0.57076,-0.93162 -0.77633,-2.15877 -0.53399,-3.18757 0.2589,-1.09907 0.51023,-1.44744 2.44094,-3.38333 1.59603,-1.60032 1.83438,-1.80676 2.40264,-2.08102 1.22819,-0.59277 2.46579,-0.60958 3.71126,-0.0504 0.60805,0.27299 0.74302,0.40079 6.73931,6.38135 l 6.11884,6.10277 6.119366,-6.10134 c 6.65985,-6.64022 6.37196,-6.38846 7.64905,-6.68902 1.04225,-0.24528 2.17635,-0.0458 3.17293,0.55825 0.72648,0.44029 3.72648,3.5146 4.06772,4.16846 0.67313,1.28985 0.67722,2.67316 0.0119,4.00936 -0.22974,0.46138 -0.99488,1.25954 -6.32854,6.60162 l -6.06721,6.07678 6.10134,6.11937 c 6.61303,6.63258 6.38898,6.37742 6.67863,7.60605 0.23627,1.00221 0.1016,2.00972 -0.39609,2.9634 -0.34124,0.65387 -3.34124,3.72818 -4.06772,4.16847 -1.34631,0.81595 -2.83666,0.87334 -4.26102,0.16408 -0.4625,-0.2303 -1.25624,-0.99116 -6.60274,-6.32925 l -6.077056,-6.06748 -6.1191,6.10305 c -5.90732,5.89181 -6.13964,6.11225 -6.71261,6.36918 -0.98912,0.44354 -1.87325,0.53766 -2.84378,0.30275 z m 8.06118,-10.28664 c 6.65706,-6.64522 6.73601,-6.7203 7.17273,-6.82141 0.34659,-0.0803 0.53658,-0.0803 0.88317,0 0.43673,0.10111 0.51568,0.17619 7.172736,6.82141 6.32471,6.31345 6.74874,6.71918 7.02243,6.71918 0.26488,0 0.42281,-0.13138 1.74307,-1.45002 1.32441,-1.32279 1.4518,-1.47574 1.4518,-1.74308 0,-0.27604 -0.39001,-0.68376 -6.71917,-7.0242 -6.64522,-6.65707 -6.7203,-6.73602 -6.82142,-7.17274 -0.0802,-0.34659 -0.0802,-0.53658 0,-0.88317 0.10112,-0.43673 0.1762,-0.51567 6.82142,-7.17274 6.31345,-6.3247 6.71917,-6.74874 6.71917,-7.02243 0,-0.26488 -0.13137,-0.42281 -1.45002,-1.74307 -1.32466,-1.32629 -1.47544,-1.4518 -1.74407,-1.4518 -0.27735,0 -0.67143,0.37685 -6.94009,6.63655 -3.65533,3.6501 -6.767176,6.69704 -6.915226,6.77097 -0.35261,0.17608 -1.21181,0.17608 -1.56442,0 -0.14805,-0.0739 -3.2599,-3.12087 -6.91523,-6.77097 -6.25323,-6.24429 -6.66332,-6.63655 -6.93832,-6.63655 -0.26617,0 -0.42189,0.12947 -1.74406,1.45002 -1.32441,1.32279 -1.4518,1.47574 -1.4518,1.74308 0,0.27604 0.39001,0.68376 6.71917,7.0242 6.64522,6.65707 6.7203,6.73601 6.82142,7.17274 0.0803,0.34659 0.0803,0.53658 0,0.88317 -0.10112,0.43672 -0.1762,0.51567 -6.82142,7.17274 -6.31345,6.3247 -6.71917,6.74874 -6.71917,7.02242 0,0.26489 0.13137,0.42281 1.45002,1.74308 1.32278,1.3244 1.47573,1.4518 1.74307,1.4518 0.27604,0 0.68376,-0.39002 7.02421,-6.71918 z"
       id="path2394" />
  </g>
</svg>
