<?xml version="1.0" encoding="UTF-8" standalone="no"?>
<!-- Created with Inkscape (http://www.inkscape.org/) -->

<svg
   width="210mm"
   height="297mm"
   viewBox="0 0 210 297"
   version="1.1"
   id="svg5535"
   inkscape:version="1.1.1 (3bf5ae0d25, 2021-09-20)"
   sodipodi:docname="compensation_end.svg"
   xmlns:inkscape="http://www.inkscape.org/namespaces/inkscape"
   xmlns:sodipodi="http://sodipodi.sourceforge.net/DTD/sodipodi-0.dtd"
   xmlns="http://www.w3.org/2000/svg"
   xmlns:svg="http://www.w3.org/2000/svg">
  <sodipodi:namedview
     id="namedview5537"
     pagecolor="#ffffff"
     bordercolor="#111111"
     borderopacity="1"
     inkscape:pageshadow="0"
     inkscape:pageopacity="0"
     inkscape:pagecheckerboard="1"
     inkscape:document-units="mm"
     showgrid="false"
     inkscape:zoom="0.64052329"
     inkscape:cx="396.55076"
     inkscape:cy="561.25984"
     inkscape:window-width="2560"
     inkscape:window-height="1377"
     inkscape:window-x="2552"
     inkscape:window-y="-8"
     inkscape:window-maximized="1"
     inkscape:current-layer="layer1" />
  <defs
     id="defs5532" />
  <g
     inkscape:label="Ebene 1"
     inkscape:groupmode="layer"
     id="layer1">
    <ellipse
       style="fill:#ffffff;stroke:#000000;stroke-width:2;stroke-miterlimit:4;stroke-dasharray:none;stroke-dashoffset:0;stroke-opacity:1"
       id="path31"
       cx="91.289291"
       cy="125.57441"
       rx="32.839001"
       ry="32.839359" />
    <path
       style="fill:#000000;stroke-width:0.0689582"
       d="m 89.514543,136.95035 c -0.143499,-0.0241 -0.376384,-0.0817 -0.517525,-0.12802 -0.14114,-0.0464 -4.78217,-2.24714 -10.3134,-4.89065 -6.974043,-3.33306 -10.131351,-4.87389 -10.300048,-5.0266 -0.330606,-0.2993 -0.527241,-0.76466 -0.460182,-1.08908 0.07728,-0.37388 0.438276,-0.81844 0.844643,-1.04018 0.75909,-0.4142 19.924698,-9.54576 20.284978,-9.66489 0.842004,-0.27843 2.064347,-0.10578 2.717357,0.3838 0.61817,0.46346 0.59342,0.30387 0.5955,3.83972 0.001,1.7463 0.0248,3.17509 0.0528,3.17509 0.028,0 3.460348,-1.63021 7.627454,-3.62268 4.16711,-1.99246 7.74896,-3.67914 7.95968,-3.74817 1.1258,-0.36881 2.47936,-0.0794 3.10466,0.66377 l 0.25321,0.30097 v 9.87492 9.87494 l -0.25064,0.29785 c -0.38727,0.46021 -1.01996,0.73972 -1.86271,0.82292 -0.8568,0.0846 -0.71301,0.14559 -9.03479,-3.83389 -4.246146,-2.03052 -7.747764,-3.69211 -7.781374,-3.69242 -0.0336,-3.4e-4 -0.0718,1.45339 -0.085,3.23045 l -0.0239,3.23104 -0.22615,0.25177 c -0.29645,0.33004 -0.62175,0.52818 -1.09124,0.6647 -0.44798,0.13026 -1.123526,0.18664 -1.493305,0.12464 z"
       id="path5353" />
  </g>
</svg>
