<?xml version="1.0" encoding="UTF-8" standalone="no"?>
<!-- Created with Inkscape (http://www.inkscape.org/) -->

<svg
   width="210mm"
   height="297mm"
   viewBox="0 0 210 297"
   version="1.1"
   id="svg6302"
   inkscape:version="1.1.1 (3bf5ae0d25, 2021-09-20)"
   sodipodi:docname="conditional_intermediate_catching.svg"
   xmlns:inkscape="http://www.inkscape.org/namespaces/inkscape"
   xmlns:sodipodi="http://sodipodi.sourceforge.net/DTD/sodipodi-0.dtd"
   xmlns="http://www.w3.org/2000/svg"
   xmlns:svg="http://www.w3.org/2000/svg">
  <sodipodi:namedview
     id="namedview6304"
     pagecolor="#ffffff"
     bordercolor="#111111"
     borderopacity="1"
     inkscape:pageshadow="0"
     inkscape:pageopacity="0"
     inkscape:pagecheckerboard="1"
     inkscape:document-units="mm"
     showgrid="false"
     inkscape:zoom="0.64052329"
     inkscape:cx="396.55076"
     inkscape:cy="561.25984"
     inkscape:window-width="2560"
     inkscape:window-height="1377"
     inkscape:window-x="2552"
     inkscape:window-y="-8"
     inkscape:window-maximized="1"
     inkscape:current-layer="layer1" />
  <defs
     id="defs6299" />
  <g
     inkscape:label="Ebene 1"
     inkscape:groupmode="layer"
     id="layer1">
    <ellipse
       style="fill:#ffffff;stroke:#000000;stroke-width:1;stroke-miterlimit:4;stroke-dasharray:none;stroke-dashoffset:0;stroke-opacity:1"
       id="path31"
       cx="94.180809"
       cy="139.20584"
       rx="32.839001"
       ry="32.839359" />
    <ellipse
       style="fill:#ffffff;stroke:#000000;stroke-width:0.945794;stroke-miterlimit:4;stroke-dasharray:none;stroke-dashoffset:0;stroke-opacity:1"
       id="path31-7"
       cx="94.335709"
       cy="139.05096"
       rx="31.058901"
       ry="31.059238" />
    <path
       style="fill:#000000;stroke-width:0.581211"
       d="m 80.453159,139.20584 v -24.47237 h 13.727646 13.727645 v 24.47237 24.47238 H 94.180805 80.453159 Z m 26.916951,0 V 115.36097 H 94.180805 80.9915 v 2.50999 2.50998 l 10.093859,0.14217 10.093851,0.14216 -10.093851,0.18543 -10.093859,0.18543 v 4.69238 4.69239 l 10.093859,0.14216 10.093851,0.14216 -10.093851,0.18543 -10.093859,0.18543 v 5.63363 5.63362 l 10.093859,0.14216 10.093851,0.14217 -10.093851,0.18543 -10.093859,0.18543 v 6.57487 6.57487 l 10.093859,0.14217 10.093851,0.14216 -10.093851,0.18543 -10.093859,0.18543 v 3.12363 3.12365 h 13.189305 13.189305 z"
       id="path5841" />
  </g>
</svg>
