<?xml version="1.0" encoding="UTF-8" standalone="no"?>
<!-- Created with Inkscape (http://www.inkscape.org/) -->

<svg
   width="210mm"
   height="297mm"
   viewBox="0 0 210 297"
   version="1.1"
   id="svg4917"
   inkscape:version="1.1.1 (3bf5ae0d25, 2021-09-20)"
   sodipodi:docname="error_intermediate_coundary_interrupting.svg"
   xmlns:inkscape="http://www.inkscape.org/namespaces/inkscape"
   xmlns:sodipodi="http://sodipodi.sourceforge.net/DTD/sodipodi-0.dtd"
   xmlns="http://www.w3.org/2000/svg"
   xmlns:svg="http://www.w3.org/2000/svg">
  <sodipodi:namedview
     id="namedview4919"
     pagecolor="#ffffff"
     bordercolor="#111111"
     borderopacity="1"
     inkscape:pageshadow="0"
     inkscape:pageopacity="0"
     inkscape:pagecheckerboard="1"
     inkscape:document-units="mm"
     showgrid="false"
     inkscape:zoom="0.64052329"
     inkscape:cx="396.55076"
     inkscape:cy="561.25984"
     inkscape:window-width="2560"
     inkscape:window-height="1377"
     inkscape:window-x="2552"
     inkscape:window-y="-8"
     inkscape:window-maximized="1"
     inkscape:current-layer="layer1" />
  <defs
     id="defs4914" />
  <g
     inkscape:label="Ebene 1"
     inkscape:groupmode="layer"
     id="layer1">
    <ellipse
       style="fill:#ffffff;stroke:#000000;stroke-width:1;stroke-miterlimit:4;stroke-dasharray:none;stroke-dashoffset:0;stroke-opacity:1"
       id="path31"
       cx="119.3783"
       cy="112.35605"
       rx="32.839001"
       ry="32.839359" />
    <ellipse
       style="fill:#ffffff;stroke:#000000;stroke-width:0.945794;stroke-miterlimit:4;stroke-dasharray:none;stroke-dashoffset:0;stroke-opacity:1"
       id="path31-7"
       cx="119.5332"
       cy="112.20116"
       rx="31.058901"
       ry="31.059238" />
    <path
       style="fill:#000000;stroke-width:0.0633742"
       d="m 92.510214,119.05578 c 0.0826,0.22179 0.48653,0.45115 0.91388,0.51896 0.18839,0.0299 0.44321,0.017 0.74841,-0.0378 0.25452,-0.0457 5.33755,-1.53752 11.295616,-3.31507 5.95808,-1.77756 10.86031,-3.22756 10.89386,-3.22224 0.0335,0.005 0.88682,1.28106 1.89616,2.83496 1.00933,1.5539 1.90566,2.86968 1.99183,2.92394 0.27292,0.17187 0.8134,0.26446 1.24365,0.21307 0.20908,-0.025 0.45173,-0.0789 0.53922,-0.11974 0.0875,-0.0409 5.71774,-3.2601 12.51167,-7.15383 11.42147,-6.54587 12.36271,-7.0967 12.48693,-7.30762 0.15142,-0.2571 0.0734,-0.43724 -0.29313,-0.67642 -0.24276,-0.15843 -0.77946,-0.26865 -1.16935,-0.24014 -0.12769,0.009 -4.57009,1.32123 -9.87198,2.91533 l -9.63982,2.89835 -1.72093,-2.65312 c -1.83061,-2.82219 -1.83496,-2.82727 -2.51326,-2.9349 -0.33459,-0.0531 -0.72358,-0.0286 -1.01005,0.0637 -0.15766,0.0508 -26.961576,14.10778 -27.893246,14.6283 -0.38871,0.21717 -0.50548,0.40663 -0.40946,0.66436 z m 18.769376,-8.38042 c 5.07238,-2.66673 9.31796,-4.89365 9.43462,-4.94871 l 0.21211,-0.10011 1.64154,2.52707 c 1.0916,1.68047 1.70932,2.56179 1.84387,2.63072 0.27781,0.14232 0.85695,0.22586 1.21527,0.1753 0.16278,-0.023 3.29658,-0.94449 6.96399,-2.04783 3.66741,-1.10333 6.67486,-1.99933 6.68323,-1.99111 0.008,0.008 -3.55212,2.06007 -7.91219,4.55967 -4.36006,2.49959 -8.30275,4.7647 -8.76154,5.03356 l -0.83416,0.48885 -1.74541,-2.69349 c -0.95998,-1.48142 -1.82171,-2.74154 -1.91496,-2.80026 -0.25522,-0.16072 -0.8432,-0.26873 -1.21889,-0.22391 -0.1727,0.0206 -3.63597,1.02812 -7.69616,2.23892 -4.0602,1.2108 -7.43124,2.21535 -7.49121,2.23233 -0.17987,0.051 0.0128,-0.0512 9.57989,-5.081 z"
       id="path4573" />
  </g>
</svg>
