<?xml version="1.0" encoding="UTF-8" standalone="no"?>
<!-- Created with Inkscape (http://www.inkscape.org/) -->

<svg
   width="210mm"
   height="297mm"
   viewBox="0 0 210 297"
   version="1.1"
   id="svg4989"
   inkscape:version="1.1.1 (3bf5ae0d25, 2021-09-20)"
   sodipodi:docname="error_end.svg"
   xmlns:inkscape="http://www.inkscape.org/namespaces/inkscape"
   xmlns:sodipodi="http://sodipodi.sourceforge.net/DTD/sodipodi-0.dtd"
   xmlns="http://www.w3.org/2000/svg"
   xmlns:svg="http://www.w3.org/2000/svg">
  <sodipodi:namedview
     id="namedview4991"
     pagecolor="#ffffff"
     bordercolor="#111111"
     borderopacity="1"
     inkscape:pageshadow="0"
     inkscape:pageopacity="0"
     inkscape:pagecheckerboard="1"
     inkscape:document-units="mm"
     showgrid="false"
     inkscape:zoom="0.64052329"
     inkscape:cx="396.55076"
     inkscape:cy="561.25984"
     inkscape:window-width="2560"
     inkscape:window-height="1377"
     inkscape:window-x="2552"
     inkscape:window-y="-8"
     inkscape:window-maximized="1"
     inkscape:current-layer="layer1" />
  <defs
     id="defs4986" />
  <g
     inkscape:label="Ebene 1"
     inkscape:groupmode="layer"
     id="layer1">
    <ellipse
       style="fill:#ffffff;stroke:#000000;stroke-width:2;stroke-miterlimit:4;stroke-dasharray:none;stroke-dashoffset:0;stroke-opacity:1"
       id="path31"
       cx="99.963837"
       cy="118.13909"
       rx="32.839001"
       ry="32.839359" />
    <path
       style="fill:#000000;stroke-width:0.0698815"
       d="m 126.49961,108.46384 c -0.1714,-0.23155 -0.69529,-0.43827 -1.18543,-0.46774 -0.21606,-0.0134 -0.48873,0.0272 -0.80085,0.11788 -0.26028,0.0757 -5.24621,2.21244 -11.07982,4.74841 -5.83362,2.53598 -10.63806,4.60896 -10.67654,4.60665 -0.0385,-0.003 -1.43576,-1.29529 -3.105074,-2.87328 -1.66931,-1.57798 -3.128167,-2.90988 -3.241902,-2.95975 -0.360211,-0.15796 -0.982597,-0.20263 -1.432104,-0.10274 -0.218454,0.0485 -0.46276,0.13168 -0.542906,0.18488 -0.08013,0.0532 -5.02754,4.11569 -10.994212,9.02785 -10.02883,8.25636 -10.853213,8.95086 -10.911089,9.19183 -0.07062,0.29382 0.08055,0.48071 0.567346,0.70194 0.322384,0.14648 0.947166,0.21065 1.360944,0.13976 0.135463,-0.0232 4.490325,-1.89947 9.677481,-4.16948 l 9.43118,-4.12731 2.844383,2.69368 c 3.038985,2.87796 3.031005,2.87189 3.834503,2.9198 0.46902,0.028 0.95234,-0.0903 1.29229,-0.31614 0.27387,-0.18193 24.34686,-18.2234 24.79682,-18.58392 0.30775,-0.24657 0.35832,-0.47105 0.16498,-0.73224 z"
       id="path5036" />
  </g>
</svg>
