<?xml version="1.0" encoding="UTF-8" standalone="no"?>
<!-- Created with Inkscape (http://www.inkscape.org/) -->

<svg
   width="210mm"
   height="297mm"
   viewBox="0 0 210 297"
   version="1.1"
   id="svg4352"
   inkscape:version="1.1.1 (3bf5ae0d25, 2021-09-20)"
   sodipodi:docname="escalation_intermediate_non_interrupting.svg"
   xmlns:inkscape="http://www.inkscape.org/namespaces/inkscape"
   xmlns:sodipodi="http://sodipodi.sourceforge.net/DTD/sodipodi-0.dtd"
   xmlns="http://www.w3.org/2000/svg"
   xmlns:svg="http://www.w3.org/2000/svg">
  <sodipodi:namedview
     id="namedview4354"
     pagecolor="#ffffff"
     bordercolor="#111111"
     borderopacity="1"
     inkscape:pageshadow="0"
     inkscape:pageopacity="0"
     inkscape:pagecheckerboard="1"
     inkscape:document-units="mm"
     showgrid="false"
     inkscape:zoom="1.8116734"
     inkscape:cx="588.95824"
     inkscape:cy="635.6002"
     inkscape:window-width="2560"
     inkscape:window-height="1377"
     inkscape:window-x="2552"
     inkscape:window-y="-8"
     inkscape:window-maximized="1"
     inkscape:current-layer="layer1" />
  <defs
     id="defs4349" />
  <g
     inkscape:label="Ebene 1"
     inkscape:groupmode="layer"
     id="layer1">
    <ellipse
       style="fill:#ffffff;stroke:#000000;stroke-width:1.00000003;stroke-miterlimit:4;stroke-dasharray:3.00000008,1.00000003;stroke-dashoffset:0;stroke-opacity:1"
       id="path31"
       cx="83.654121"
       cy="116.16165"
       rx="32.839001"
       ry="32.839359" />
    <ellipse
       style="fill:#ffffff;stroke:#000000;stroke-width:0.94579396;stroke-miterlimit:4;stroke-dasharray:2.83738188,0.94579396;stroke-dashoffset:0;stroke-opacity:1"
       id="path31-7"
       cx="83.809013"
       cy="116.00676"
       rx="31.058901"
       ry="31.059238" />
    <path
       style="fill:#000000;stroke-width:0.597206"
       d="m 61.296747,132.15956 c 8.36757,-15.1749 21.91813,-38.799017 22.25476,-38.799017 0.31236,0 20.651883,35.555857 23.243283,40.632047 0.29685,0.58146 -3.24385,-2.81703 -17.106793,-16.41983 l -6.14806,-6.0327 -6.14807,6.0327 c -17.38534,17.05908 -17.53128,17.19135 -16.09512,14.5868 z m 13.6327,-12.79722 c 4.41394,-4.38739 8.28866,-7.97705 8.61049,-7.97705 0.32181,0 4.19654,3.58966 8.61049,7.97705 4.41394,4.38737 9.165073,9.04695 10.558063,10.35459 l 2.53273,2.37756 -3.11642,-5.52092 c -1.71405,-3.03651 -6.531183,-11.60874 -10.704733,-19.0494 -4.17355,-7.44065 -7.7196,-13.526887 -7.88013,-13.524947 -0.16052,0.002 -2.85777,4.60195 -5.99388,10.222297 -3.13611,5.62034 -7.94269,14.18101 -10.68125,19.0237 -5.75452,10.17584 -6.38428,10.47906 8.06464,-3.88288 z"
       id="path4321" />
  </g>
</svg>
