<?xml version="1.0" encoding="UTF-8" standalone="no"?>
<!-- Created with Inkscape (http://www.inkscape.org/) -->

<svg
   width="210mm"
   height="297mm"
   viewBox="0 0 210 297"
   version="1.1"
   id="svg6468"
   inkscape:version="1.1.1 (3bf5ae0d25, 2021-09-20)"
   sodipodi:docname="link_intermediate_catching.svg"
   xmlns:inkscape="http://www.inkscape.org/namespaces/inkscape"
   xmlns:sodipodi="http://sodipodi.sourceforge.net/DTD/sodipodi-0.dtd"
   xmlns="http://www.w3.org/2000/svg"
   xmlns:svg="http://www.w3.org/2000/svg">
  <sodipodi:namedview
     id="namedview6470"
     pagecolor="#ffffff"
     bordercolor="#111111"
     borderopacity="1"
     inkscape:pageshadow="0"
     inkscape:pageopacity="0"
     inkscape:pagecheckerboard="1"
     inkscape:document-units="mm"
     showgrid="false"
     inkscape:zoom="0.64052329"
     inkscape:cx="396.55076"
     inkscape:cy="561.25984"
     inkscape:window-width="2560"
     inkscape:window-height="1377"
     inkscape:window-x="2552"
     inkscape:window-y="-8"
     inkscape:window-maximized="1"
     inkscape:current-layer="layer1" />
  <defs
     id="defs6465" />
  <g
     inkscape:label="Ebene 1"
     inkscape:groupmode="layer"
     id="layer1">
    <ellipse
       style="fill:#ffffff;stroke:#000000;stroke-width:1;stroke-miterlimit:4;stroke-dasharray:none;stroke-dashoffset:0;stroke-opacity:1"
       id="path31"
       cx="98.311539"
       cy="138.3797"
       rx="32.839001"
       ry="32.839359" />
    <ellipse
       style="fill:#ffffff;stroke:#000000;stroke-width:0.945794;stroke-miterlimit:4;stroke-dasharray:none;stroke-dashoffset:0;stroke-opacity:1"
       id="path31-7"
       cx="98.466438"
       cy="138.22481"
       rx="31.058901"
       ry="31.059238" />
    <path
       style="fill:#000000;stroke-width:0.0778032"
       d="m 95.411072,151.11997 c -0.24461,-0.0911 -0.50834,-0.22284 -0.58605,-0.29282 -0.10538,-0.0949 -0.1551,-0.61648 -0.19557,-2.05156 l -0.0543,-1.9243 -10.654917,-0.0279 c -10.549627,-0.0276 -10.657886,-0.029 -10.954589,-0.14289 -0.164816,-0.0633 -0.400357,-0.18432 -0.523426,-0.26903 -0.223389,-0.15378 -0.223761,-0.16644 -0.223761,-7.61997 0,-7.45352 3.72e-4,-7.46619 0.223761,-7.61996 0.123069,-0.0847 0.358614,-0.20578 0.523435,-0.26903 0.297234,-0.11407 0.385712,-0.11512 10.873193,-0.12976 l 10.573514,-0.0147 V 128.916 c 0,-1.72913 0.0132,-1.8554 0.21606,-2.05971 0.50511,-0.50885 1.73209,-0.70938 2.67802,-0.43767 0.87545,0.25146 30.108628,11.83094 30.268068,11.9894 0.31636,0.31441 0.061,0.76416 -0.61773,1.08805 -0.72275,0.3449 -29.459158,11.64098 -29.800608,11.71442 -0.60229,0.12953 -1.24348,0.0963 -1.74513,-0.0905 z m 17.559558,-8.39282 c 5.40196,-2.10832 9.82175,-3.85593 9.82175,-3.88356 0,-0.0276 -5.49421,-2.19448 -12.20936,-4.81521 l -12.209358,-4.76497 -0.0543,1.34771 c -0.0628,1.55989 -0.12737,1.68682 -0.97509,1.91722 l -0.46991,0.12771 H 86.364287 75.854172 v 6.13546 6.13547 h 10.392241 c 6.434029,0 10.532929,0.0207 10.761609,0.0545 0.42731,0.063 0.82145,0.23689 1.0775,0.47543 0.15078,0.14047 0.18529,0.39333 0.21496,1.57514 l 0.0353,1.40781 2.406518,-0.93967 c 1.32359,-0.51682 6.82631,-2.66466 12.22828,-4.77299 z"
       id="path6618" />
  </g>
</svg>
