<?xml version="1.0" encoding="UTF-8" standalone="no"?>
<!-- Created with Inkscape (http://www.inkscape.org/) -->

<svg
   width="210mm"
   height="297mm"
   viewBox="0 0 210 297"
   version="1.1"
   id="svg2212"
   inkscape:version="1.1.1 (3bf5ae0d25, 2021-09-20)"
   sodipodi:docname="message_intermediate_boundary_non_interrupting.svg"
   xmlns:inkscape="http://www.inkscape.org/namespaces/inkscape"
   xmlns:sodipodi="http://sodipodi.sourceforge.net/DTD/sodipodi-0.dtd"
   xmlns="http://www.w3.org/2000/svg"
   xmlns:svg="http://www.w3.org/2000/svg">
  <sodipodi:namedview
     id="namedview2214"
     pagecolor="#ffffff"
     bordercolor="#111111"
     borderopacity="1"
     inkscape:pageshadow="0"
     inkscape:pageopacity="0"
     inkscape:pagecheckerboard="1"
     inkscape:document-units="mm"
     showgrid="false"
     inkscape:zoom="2.5620932"
     inkscape:cx="397.33138"
     inkscape:cy="530.62083"
     inkscape:window-width="2560"
     inkscape:window-height="1377"
     inkscape:window-x="2552"
     inkscape:window-y="-8"
     inkscape:window-maximized="1"
     inkscape:current-layer="layer1" />
  <defs
     id="defs2209" />
  <g
     inkscape:label="Ebene 1"
     inkscape:groupmode="layer"
     id="layer1">
    <ellipse
       style="fill:#ffffff;stroke:#000000;stroke-width:1.00000003;stroke-miterlimit:4;stroke-dasharray:3.00000008,1.00000003;stroke-dashoffset:0;stroke-opacity:1"
       id="path31"
       cx="68.983307"
       cy="114.00835"
       rx="32.839001"
       ry="32.839359" />
    <ellipse
       style="fill:#ffffff;stroke:#000000;stroke-width:0.94579396;stroke-miterlimit:4;stroke-dasharray:2.83738188,0.94579396;stroke-dashoffset:0;stroke-opacity:1"
       id="path31-7"
       cx="69.138206"
       cy="113.85346"
       rx="31.058901"
       ry="31.059238" />
    <path
       style="fill:#000000;stroke-width:0.0985473"
       d="m 48.408582,128.20024 c -1.99251,-0.47064 -3.63095,-1.72094 -4.31297,-3.29124 l -0.25542,-0.58807 v -10.41586 -10.41585 l 0.25542,-0.58807 c 0.69274,-1.59499 2.41184,-2.88262 4.42568,-3.314908 l 0.86923,-0.18659 19.98526,0.0231 19.98525,0.0232 0.68754,0.20503 c 1.87879,0.560268 3.39026,1.779568 4.02898,3.250178 l 0.25541,0.58807 v 10.41585 10.41586 l -0.25541,0.58807 c -0.63872,1.47061 -2.15019,2.68991 -4.02898,3.25018 l -0.68754,0.20503 -20.05348,0.0179 -20.05347,0.0179 z m 40.82715,-2.81742 c 0.52598,-0.2077 1.09088,-0.66069 1.35939,-1.09007 0.19112,-0.30563 0.20385,-0.78628 0.2315,-8.7396 0.0161,-4.6289 0.002,-8.41618 -0.0312,-8.41618 -0.0333,0 -4.1334,1.93871 -9.1114,4.30824 -4.978,2.36953 -9.27949,4.38619 -9.55887,4.48146 -1.76637,0.60235 -3.63706,0.65579 -5.54195,0.15831 -0.5065,-0.13227 -3.58588,-1.54026 -9.97011,-4.55863 l -9.23726,-4.36725 -0.0323,8.22932 c -0.0237,6.03996 0.002,8.32287 0.0956,8.58092 0.23983,0.6593 0.94812,1.25257 1.80264,1.50992 0.25994,0.0783 5.13055,0.0997 19.9554,0.0879 19.09232,-0.0153 19.62283,-0.0201 20.03866,-0.18434 z m -19.03422,-11.85827 c 0.26793,-0.0643 5.00266,-2.24575 10.52163,-4.84775 9.71622,-4.58087 10.03223,-4.73808 9.96334,-4.95643 -0.16966,-0.53778 -1.00307,-1.18345 -1.81151,-1.40346 -0.53583,-0.14581 -39.03422,-0.14707 -39.57678,-10e-4 -0.82926,0.22281 -1.68848,0.91088 -1.81972,1.45724 -0.0576,0.23987 0.0995,0.31821 9.88344,4.92684 5.4681,2.5757 10.13179,4.73849 10.36376,4.8062 0.54334,0.15858 1.85132,0.16844 2.47584,0.0186 z"
       id="path2330" />
  </g>
</svg>
