<?xml version="1.0" encoding="UTF-8" standalone="no"?>
<!-- Created with Inkscape (http://www.inkscape.org/) -->

<svg
   width="210mm"
   height="297mm"
   viewBox="0 0 210 297"
   version="1.1"
   id="svg1332"
   inkscape:version="1.1.1 (3bf5ae0d25, 2021-09-20)"
   sodipodi:docname="message_start_interrupting.svg"
   xmlns:inkscape="http://www.inkscape.org/namespaces/inkscape"
   xmlns:sodipodi="http://sodipodi.sourceforge.net/DTD/sodipodi-0.dtd"
   xmlns="http://www.w3.org/2000/svg"
   xmlns:svg="http://www.w3.org/2000/svg">
  <sodipodi:namedview
     id="namedview1334"
     pagecolor="#ffffff"
     bordercolor="#111111"
     borderopacity="1"
     inkscape:pageshadow="0"
     inkscape:pageopacity="0"
     inkscape:pagecheckerboard="1"
     inkscape:document-units="mm"
     showgrid="false"
     inkscape:zoom="1.2810466"
     inkscape:cx="555.01495"
     inkscape:cy="571.01749"
     inkscape:window-width="2560"
     inkscape:window-height="1377"
     inkscape:window-x="2552"
     inkscape:window-y="-8"
     inkscape:window-maximized="1"
     inkscape:current-layer="layer1" />
  <defs
     id="defs1329" />
  <g
     inkscape:label="Ebene 1"
     inkscape:groupmode="layer"
     id="layer1">
    <circle
       style="fill:#ffffff;stroke:#000000;stroke-width:1;stroke-miterlimit:4;stroke-dasharray:none;stroke-dashoffset:0;stroke-opacity:1"
       id="path31"
       cx="96.246185"
       cy="104.09458"
       r="32.839359" />
    <path
       style="fill:#000000;stroke-width:0.111487"
       d="m 74.058263,121.45496 c -2.138002,-0.56135 -3.896085,-2.05265 -4.627907,-3.92563 L 69.15629,116.8279 V 104.40437 91.98083 l 0.274066,-0.70142 c 0.743327,-1.90243 2.587951,-3.43825 4.748844,-3.95387 l 0.93271,-0.22256 21.444588,0.0276 21.444582,0.0276 0.73774,0.24455 c 2.01598,0.66827 3.63782,2.12259 4.32318,3.87666 l 0.27407,0.70143 v 12.42354 12.42353 l -0.27407,0.70143 c -0.68536,1.75407 -2.3072,3.20839 -4.32318,3.87666 l -0.73774,0.24455 -21.517792,0.0213 -21.517788,0.0213 z m 43.808367,-3.36048 c 0.56439,-0.24774 1.17054,-0.78803 1.45865,-1.30018 0.20508,-0.36454 0.21874,-0.93784 0.24841,-10.42418 0.0173,-5.52114 0.002,-10.03843 -0.0335,-10.03843 -0.0357,0 -4.43522,2.3124 -9.77672,5.13867 -5.34149,2.82627 -9.957072,5.23164 -10.256852,5.34528 -1.89536,0.71845 -3.90264,0.78219 -5.94663,0.18882 -0.54348,-0.15777 -3.84772,-1.83715 -10.698128,-5.43732 l -9.91177,-5.20905 -0.03469,9.81555 c -0.02546,7.20417 0.0018,9.92711 0.102546,10.2349 0.257341,0.78639 1.017351,1.49402 1.934262,1.80097 0.278927,0.0934 5.505192,0.11896 21.41255,0.10484 20.486462,-0.0182 21.055702,-0.024 21.501902,-0.21987 z M 97.442528,103.9505 c 0.28748,-0.0766 5.367952,-2.67862 11.289912,-5.78217 10.42571,-5.46385 10.76479,-5.65135 10.69088,-5.9118 -0.18206,-0.64143 -1.07631,-1.41156 -1.94379,-1.67397 -0.57496,-0.17392 -41.884516,-0.17542 -42.4667,-0.001 -0.88981,0.26576 -1.81177,1.08645 -1.952599,1.73813 -0.06183,0.2861 0.106791,0.37954 10.60514,5.8765 5.867377,3.07217 10.871617,5.65184 11.120527,5.7326 0.58301,0.18915 1.9865,0.2009 2.65663,0.0222 z"
       id="path1743" />
  </g>
</svg>
