<?xml version="1.0" encoding="UTF-8" standalone="no"?>
<!-- Created with Inkscape (http://www.inkscape.org/) -->

<svg
   width="210mm"
   height="297mm"
   viewBox="0 0 210 297"
   version="1.1"
   id="svg2449"
   inkscape:version="1.1.1 (3bf5ae0d25, 2021-09-20)"
   sodipodi:docname="message_end.svg"
   xmlns:inkscape="http://www.inkscape.org/namespaces/inkscape"
   xmlns:sodipodi="http://sodipodi.sourceforge.net/DTD/sodipodi-0.dtd"
   xmlns="http://www.w3.org/2000/svg"
   xmlns:svg="http://www.w3.org/2000/svg">
  <sodipodi:namedview
     id="namedview2451"
     pagecolor="#ffffff"
     bordercolor="#111111"
     borderopacity="1"
     inkscape:pageshadow="0"
     inkscape:pageopacity="0"
     inkscape:pagecheckerboard="1"
     inkscape:document-units="mm"
     showgrid="false"
     inkscape:zoom="1.2810466"
     inkscape:cx="529.25476"
     inkscape:cy="583.50728"
     inkscape:window-width="2560"
     inkscape:window-height="1377"
     inkscape:window-x="2552"
     inkscape:window-y="-8"
     inkscape:window-maximized="1"
     inkscape:current-layer="layer1" />
  <defs
     id="defs2446" />
  <g
     inkscape:label="Ebene 1"
     inkscape:groupmode="layer"
     id="layer1">
    <ellipse
       style="fill:#ffffff;stroke:#000000;stroke-width:2;stroke-miterlimit:4;stroke-dasharray:none;stroke-dashoffset:0;stroke-opacity:1"
       id="path31"
       cx="87.158562"
       cy="99.550758"
       rx="32.839001"
       ry="32.839359" />
    <path
       style="fill:#000000;stroke-width:0.0884153"
       d="m 63.729487,114.31084 c -1.69368,-0.23215 -3.15044,-1.28154 -3.48189,-2.5082 -0.15647,-0.57906 -0.14537,-20.551131 0.0115,-20.766481 0.32004,-0.43922 1.1751,-0.56418 1.74115,-0.25444 1.09118,0.59708 16.77431,10.008271 20.25083,12.152191 2.10935,1.3008 2.55666,1.53145 3.41882,1.76287 0.82086,0.22033 2.15639,0.22033 2.97724,0 0.80743,-0.21673 1.31474,-0.46692 2.73284,-1.34778 2.56688,-1.59444 19.916923,-12.008651 20.936943,-12.567221 0.56579,-0.30983 1.42097,-0.18488 1.74104,0.25438 0.15667,0.21502 0.16801,20.184431 0.0118,20.771901 -0.33233,1.24981 -1.79025,2.27079 -3.58342,2.50947 -0.7062,0.094 -46.069653,0.0875 -46.756883,-0.007 z m 22.97424,-11.03958 c -0.22113,-0.0349 -0.49871,-0.0998 -0.61684,-0.14413 -0.11812,-0.0444 -1.33819,-0.77024 -2.71125,-1.61304 -3.59748,-2.208171 -6.00069,-3.652861 -14.47487,-8.701581 -4.15022,-2.4726 -7.6527,-4.60011 -7.78331,-4.7278 -0.42179,-0.41238 -0.27029,-0.78009 0.53645,-1.30201 0.57538,-0.37225 1.30647,-0.63944 2.05439,-0.75082 0.79612,-0.11855 46.104423,-0.11855 46.900543,0 0.74792,0.11138 1.47901,0.37857 2.05439,0.75082 0.80674,0.52192 0.95824,0.88963 0.53644,1.30201 -0.1306,0.12769 -3.63309,2.25501 -7.7833,4.72739 -7.674233,4.57169 -11.164053,6.67113 -14.919553,8.975401 -2.4271,1.48921 -2.8099,1.63895 -3.79309,1.48376 z"
       id="path2505" />
  </g>
</svg>
