<?xml version="1.0" encoding="UTF-8" standalone="no"?>
<!-- Created with Inkscape (http://www.inkscape.org/) -->

<svg
   width="210mm"
   height="297mm"
   viewBox="0 0 210 297"
   version="1.1"
   id="svg1932"
   inkscape:version="1.1.1 (3bf5ae0d25, 2021-09-20)"
   sodipodi:docname="parallel_multiple_start_interrupting.svg"
   xmlns:inkscape="http://www.inkscape.org/namespaces/inkscape"
   xmlns:sodipodi="http://sodipodi.sourceforge.net/DTD/sodipodi-0.dtd"
   xmlns="http://www.w3.org/2000/svg"
   xmlns:svg="http://www.w3.org/2000/svg">
  <sodipodi:namedview
     id="namedview1934"
     pagecolor="#ffffff"
     bordercolor="#111111"
     borderopacity="1"
     inkscape:pageshadow="0"
     inkscape:pageopacity="0"
     inkscape:pagecheckerboard="1"
     inkscape:document-units="mm"
     showgrid="false"
     inkscape:zoom="0.64052329"
     inkscape:cx="396.55076"
     inkscape:cy="561.25984"
     inkscape:window-width="2560"
     inkscape:window-height="1377"
     inkscape:window-x="2552"
     inkscape:window-y="-8"
     inkscape:window-maximized="1"
     inkscape:current-layer="layer1" />
  <defs
     id="defs1929" />
  <g
     inkscape:label="Ebene 1"
     inkscape:groupmode="layer"
     id="layer1">
    <circle
       style="fill:#ffffff;stroke:#000000;stroke-width:1;stroke-miterlimit:4;stroke-dasharray:none;stroke-dashoffset:0;stroke-opacity:1"
       id="path31"
       cx="93.35466"
       cy="147.05424"
       r="32.839359" />
    <path
       style="fill:#000000;stroke-width:0.100706"
       d="m 86.012159,168.26229 c -0.73257,-0.26088 -0.7028,0.0691 -0.7028,-7.78995 v -7.11224 h -8.68647 c -9.63481,0 -9.20121,0.0271 -9.5189,-0.59544 -0.23504,-0.46057 -0.23504,-12.19949 0,-12.66007 0.31769,-0.62256 -0.11591,-0.59544 9.5189,-0.59544 h 8.68647 v -7.11224 c 0,-7.88871 -0.0331,-7.53369 0.72723,-7.79381 0.56252,-0.19244 14.899751,-0.19244 15.462271,0 0.76036,0.26012 0.72723,-0.0949 0.72723,7.79381 v 7.11224 h 8.68648 c 9.6348,0 9.2012,-0.0271 9.5189,0.59544 0.23503,0.46058 0.23503,12.1995 0,12.66007 -0.3177,0.62256 0.1159,0.59544 -9.5189,0.59544 h -8.68648 v 7.11224 c 0,7.88871 0.0331,7.53369 -0.72723,7.79381 -0.55393,0.18951 -14.953791,0.18591 -15.486701,-0.004 z m 13.87798,-8.68294 c 6.6e-4,-3.79648 0.0322,-7.05619 0.0701,-7.2438 0.0379,-0.18762 0.194401,-0.44391 0.347831,-0.56953 l 0.27897,-0.22842 h 8.83271 8.83272 v -5.10297 -5.10298 h -8.83272 -8.83271 l -0.27897,-0.22842 c -0.15343,-0.12562 -0.309961,-0.38191 -0.347831,-0.56952 -0.0379,-0.18762 -0.0694,-3.44733 -0.0701,-7.24381 l -0.001,-6.90269 h -6.11796 -6.11795 l -0.031,7.1929 -0.031,7.1929 -0.32688,0.27932 -0.32688,0.27932 h -8.82707 -8.82708 v 5.10298 5.10297 h 8.83272 8.83272 l 0.27897,0.22842 c 0.15343,0.12562 0.30995,0.38191 0.34783,0.56953 0.0379,0.18761 0.0694,3.44732 0.0701,7.2438 l 0.001,6.90269 h 6.12118 6.12119 l 0.001,-6.90269 z"
       id="path1970" />
  </g>
</svg>
