<?xml version="1.0" encoding="UTF-8" standalone="no"?>
<!-- Created with Inkscape (http://www.inkscape.org/) -->

<svg
   width="210mm"
   height="297mm"
   viewBox="0 0 210 297"
   version="1.1"
   id="svg7544"
   inkscape:version="1.1.1 (3bf5ae0d25, 2021-09-20)"
   sodipodi:docname="signal_intermediate_throwing.svg"
   xmlns:inkscape="http://www.inkscape.org/namespaces/inkscape"
   xmlns:sodipodi="http://sodipodi.sourceforge.net/DTD/sodipodi-0.dtd"
   xmlns="http://www.w3.org/2000/svg"
   xmlns:svg="http://www.w3.org/2000/svg">
  <sodipodi:namedview
     id="namedview7546"
     pagecolor="#ffffff"
     bordercolor="#111111"
     borderopacity="1"
     inkscape:pageshadow="0"
     inkscape:pageopacity="0"
     inkscape:pagecheckerboard="1"
     inkscape:document-units="mm"
     showgrid="false"
     inkscape:zoom="0.64052329"
     inkscape:cx="396.55076"
     inkscape:cy="561.25984"
     inkscape:window-width="2560"
     inkscape:window-height="1377"
     inkscape:window-x="2552"
     inkscape:window-y="-8"
     inkscape:window-maximized="1"
     inkscape:current-layer="layer1" />
  <defs
     id="defs7541" />
  <g
     inkscape:label="Ebene 1"
     inkscape:groupmode="layer"
     id="layer1">
    <ellipse
       style="fill:#ffffff;stroke:#000000;stroke-width:1;stroke-miterlimit:4;stroke-dasharray:none;stroke-dashoffset:0;stroke-opacity:1"
       id="path31"
       cx="94.180809"
       cy="129.29207"
       rx="32.839001"
       ry="32.839359" />
    <ellipse
       style="fill:#ffffff;stroke:#000000;stroke-width:0.945794;stroke-miterlimit:4;stroke-dasharray:none;stroke-dashoffset:0;stroke-opacity:1"
       id="path31-7"
       cx="94.335709"
       cy="129.13719"
       rx="31.058901"
       ry="31.059238" />
    <path
       style="fill:#000000;stroke-width:0.0914168"
       d="m 72.162062,145.07796 c -0.84134,-0.29842 -1.49441,-1.00391 -1.76481,-1.90645 -0.16866,-0.56295 -0.17189,-0.99992 -0.0113,-1.52884 0.1315,-0.43309 20.71806,-34.53485 21.22715,-35.16289 0.16348,-0.20168 0.51888,-0.48837 0.78978,-0.6371 0.44925,-0.24663 0.56925,-0.27041 1.36485,-0.27041 0.79561,0 0.91561,0.0238 1.36485,0.27041 0.2709,0.14873 0.62631,0.43542 0.78979,0.6371 0.50472,0.62265 21.094518,34.72697 21.233898,35.17118 0.3723,1.18659 -0.29284,2.68432 -1.4687,3.30712 l -0.3878,0.20539 -21.394308,0.0192 c -17.84664,0.016 -21.45219,-0.001 -21.74341,-0.10467 z"
       id="path7670" />
  </g>
</svg>
