<?xml version="1.0" encoding="UTF-8" standalone="no"?>
<!-- Created with Inkscape (http://www.inkscape.org/) -->

<svg
   width="210mm"
   height="297mm"
   viewBox="0 0 210 297"
   version="1.1"
   id="svg2688"
   inkscape:version="1.1.1 (3bf5ae0d25, 2021-09-20)"
   sodipodi:docname="terminate.svg"
   xmlns:inkscape="http://www.inkscape.org/namespaces/inkscape"
   xmlns:sodipodi="http://sodipodi.sourceforge.net/DTD/sodipodi-0.dtd"
   xmlns="http://www.w3.org/2000/svg"
   xmlns:svg="http://www.w3.org/2000/svg">
  <sodipodi:namedview
     id="namedview2690"
     pagecolor="#ffffff"
     bordercolor="#111111"
     borderopacity="1"
     inkscape:pageshadow="0"
     inkscape:pageopacity="0"
     inkscape:pagecheckerboard="1"
     inkscape:document-units="mm"
     showgrid="false"
     inkscape:zoom="1.8116734"
     inkscape:cx="641.0313"
     inkscape:cy="587.37393"
     inkscape:window-width="2560"
     inkscape:window-height="1377"
     inkscape:window-x="2552"
     inkscape:window-y="-8"
     inkscape:window-maximized="1"
     inkscape:current-layer="layer1" />
  <defs
     id="defs2685" />
  <g
     inkscape:label="Ebene 1"
     inkscape:groupmode="layer"
     id="layer1">
    <ellipse
       style="fill:#ffffff;stroke:#000000;stroke-width:1;stroke-miterlimit:4;stroke-dasharray:none;stroke-dashoffset:0;stroke-opacity:1"
       id="path31"
       cx="102.02921"
       cy="139.20584"
       rx="32.839001"
       ry="32.839359" />
    <ellipse
       style="fill:#ffffff;stroke:#000000;stroke-width:0.945794;stroke-miterlimit:4;stroke-dasharray:none;stroke-dashoffset:0;stroke-opacity:1"
       id="path31-7"
       cx="102.1841"
       cy="139.05096"
       rx="31.058901"
       ry="31.059238" />
    <path
       style="fill:#000000;stroke-width:2.08621;stroke-dasharray:6.25862, 2.08621"
       d="m 375.54781,640.41918 c -45.81391,-4.71609 -84.15673,-35.17529 -98.59948,-78.32653 -16.54216,-49.42379 2.03199,-103.39278 45.63765,-132.60456 6.44392,-4.31684 19.51884,-10.79495 26.39556,-13.07797 38.95482,-12.93271 80.292,-5.02876 111.88614,21.39339 27.43218,22.94151 43.18305,60.36275 40.31513,95.78151 -2.95733,36.52279 -21.82178,68.61631 -51.9521,88.38453 -9.93173,6.51611 -22.53312,12.11416 -34.2073,15.19626 -11.24641,2.96916 -28.45734,4.3876 -39.4756,3.25337 z"
       id="path3168"
       transform="scale(0.26458333)" />
  </g>
</svg>
