<?xml version="1.0" encoding="UTF-8" standalone="no"?>
<!-- Created with Inkscape (http://www.inkscape.org/) -->

<svg
   width="210mm"
   height="297mm"
   viewBox="0 0 210 297"
   version="1.1"
   id="svg2623"
   inkscape:version="1.1.1 (3bf5ae0d25, 2021-09-20)"
   sodipodi:docname="timer_start_interrupting.svg"
   xmlns:inkscape="http://www.inkscape.org/namespaces/inkscape"
   xmlns:sodipodi="http://sodipodi.sourceforge.net/DTD/sodipodi-0.dtd"
   xmlns="http://www.w3.org/2000/svg"
   xmlns:svg="http://www.w3.org/2000/svg">
  <sodipodi:namedview
     id="namedview2625"
     pagecolor="#ffffff"
     bordercolor="#111111"
     borderopacity="1"
     inkscape:pageshadow="0"
     inkscape:pageopacity="0"
     inkscape:pagecheckerboard="1"
     inkscape:document-units="mm"
     showgrid="false"
     inkscape:zoom="1.2810466"
     inkscape:cx="556.57617"
     inkscape:cy="558.5277"
     inkscape:window-width="2560"
     inkscape:window-height="1377"
     inkscape:window-x="2552"
     inkscape:window-y="-8"
     inkscape:window-maximized="1"
     inkscape:current-layer="layer1" />
  <defs
     id="defs2620" />
  <g
     inkscape:label="Ebene 1"
     inkscape:groupmode="layer"
     id="layer1">
    <circle
       style="fill:#ffffff;stroke:#000000;stroke-width:1;stroke-miterlimit:4;stroke-dasharray:none;stroke-dashoffset:0;stroke-opacity:1"
       id="path31"
       cx="144.98888"
       cy="106.15994"
       r="32.839359" />
    <path
       style="fill:#000000;stroke-width:0.118933"
       d="m 142.27819,136.37085 c -4.61639,-0.43422 -9.23457,-1.95226 -13.15783,-4.32509 -3.94464,-2.38575 -7.74461,-6.13451 -10.16295,-10.02599 -5.51106,-8.86814 -5.98887,-19.95254 -1.26166,-29.268663 2.48714,-4.901501 6.67162,-9.395785 11.42461,-12.270438 8.98927,-5.436798 20.22508,-5.908166 29.66845,-1.244658 4.96846,2.453618 9.52413,6.581712 12.43805,11.270652 5.51106,8.868134 5.98887,19.952547 1.26166,29.268667 -2.48714,4.9015 -6.67162,9.39578 -11.42461,12.27043 -5.56421,3.3653 -12.35875,4.92962 -18.78572,4.32509 z m 6.76544,-4.2984 c 6.26417,-0.94791 12.20607,-4.21981 16.19334,-8.91684 2.64412,-3.1148 4.55354,-6.77858 5.53595,-10.62234 0.5373,-2.10222 0.71515,-3.66154 0.71515,-6.27005 0,-4.30635 -0.76229,-7.619873 -2.62426,-11.407118 -2.56737,-5.222041 -6.90809,-9.502415 -12.21655,-12.046707 -3.82377,-1.832694 -7.19113,-2.586421 -11.55513,-2.586421 -4.36517,0 -7.72394,0.752018 -11.56292,2.588896 -5.29338,2.532778 -9.63222,6.815009 -12.21126,12.051933 -1.85773,3.772244 -2.62175,7.094227 -2.62175,11.399417 0,4.30635 0.76229,7.61986 2.62426,11.40711 2.56737,5.22204 6.90809,9.50242 12.21655,12.04671 2.99967,1.43771 5.79788,2.20089 9.45964,2.58001 0.98423,0.1019 4.83435,-0.0411 6.04698,-0.2246 z m -5.25395,-22.14749 c -0.92071,-0.21445 -1.51715,-0.96165 -1.62972,-2.04165 -0.0421,-0.40377 -0.0596,-4.66781 -0.039,-9.475643 0.0343,-7.990158 0.0551,-8.773313 0.24275,-9.11137 0.47875,-0.862696 1.49479,-1.339045 2.36376,-1.108207 0.50874,0.135142 1.11735,0.579163 1.35525,0.988748 0.11062,0.190464 0.16178,2.283571 0.20685,8.462989 l 0.0599,8.209943 7.68474,0.0591 c 7.52707,0.0579 7.69153,0.0641 8.01533,0.30262 1.51775,1.1182 1.08238,3.30146 -0.74156,3.71878 -0.57528,0.13162 -16.95168,0.1267 -17.51826,-0.005 z"
       id="path2679" />
  </g>
</svg>
