<?xml version="1.0" encoding="UTF-8" standalone="no"?>
<!-- Created with Inkscape (http://www.inkscape.org/) -->

<svg
   width="210mm"
   height="297mm"
   viewBox="0 0 210 297"
   version="1.1"
   id="svg2904"
   inkscape:version="1.1.1 (3bf5ae0d25, 2021-09-20)"
   sodipodi:docname="timer_intermediate_catching.svg"
   xmlns:inkscape="http://www.inkscape.org/namespaces/inkscape"
   xmlns:sodipodi="http://sodipodi.sourceforge.net/DTD/sodipodi-0.dtd"
   xmlns="http://www.w3.org/2000/svg"
   xmlns:svg="http://www.w3.org/2000/svg">
  <sodipodi:namedview
     id="namedview2906"
     pagecolor="#ffffff"
     bordercolor="#111111"
     borderopacity="1"
     inkscape:pageshadow="0"
     inkscape:pageopacity="0"
     inkscape:pagecheckerboard="1"
     inkscape:document-units="mm"
     showgrid="false"
     inkscape:zoom="0.64052329"
     inkscape:cx="310.68347"
     inkscape:cy="703.33118"
     inkscape:window-width="2560"
     inkscape:window-height="1377"
     inkscape:window-x="2552"
     inkscape:window-y="-8"
     inkscape:window-maximized="1"
     inkscape:current-layer="layer1" />
  <defs
     id="defs2901" />
  <g
     inkscape:label="Ebene 1"
     inkscape:groupmode="layer"
     id="layer1">
    <ellipse
       style="fill:#ffffff;stroke:#000000;stroke-width:1;stroke-miterlimit:4;stroke-dasharray:none;stroke-dashoffset:0;stroke-opacity:1"
       id="path31"
       cx="83.853966"
       cy="139.61891"
       rx="32.839001"
       ry="32.839359" />
    <ellipse
       style="fill:#ffffff;stroke:#000000;stroke-width:0.945794;stroke-miterlimit:4;stroke-dasharray:none;stroke-dashoffset:0;stroke-opacity:1"
       id="path31-7"
       cx="84.008865"
       cy="139.46404"
       rx="31.058901"
       ry="31.059238" />
    <path
       style="fill:#000000;stroke-width:0.102182"
       d="m 81.626549,165.70779 c -3.908285,-0.37859 -7.818086,-1.70215 -11.13956,-3.77098 -3.339574,-2.0801 -6.556669,-5.34859 -8.604062,-8.74152 -4.66572,-7.732 -5.070239,-17.39632 -1.068133,-25.51892 2.105638,-4.27355 5.648263,-8.19205 9.672195,-10.69842 7.610413,-4.74026 17.122769,-5.15124 25.117627,-1.0852 4.206352,2.13928 8.063234,5.7385 10.530194,9.82672 4.66572,7.73201 5.07024,17.39634 1.06814,25.51893 -2.10565,4.27354 -5.64827,8.19204 -9.67221,10.69841 -4.71072,2.93415 -10.46305,4.29806 -15.904191,3.77098 z m 5.727694,-3.74772 c 5.303313,-0.82647 10.333791,-3.67918 13.709457,-7.77445 2.23854,-2.71576 3.85508,-5.91016 4.6868,-9.26147 0.45488,-1.8329 0.60545,-3.19245 0.60545,-5.46676 0,-3.75465 -0.64536,-6.64365 -2.22172,-9.94571 -2.17357,-4.55302 -5.848471,-8.28501 -10.342673,-10.50334 -3.237244,-1.59791 -6.088088,-2.25506 -9.782696,-2.25506 -3.6956,0 -6.539171,0.65566 -9.789292,2.25721 -4.481432,2.20829 -8.15474,5.94191 -10.338183,10.5079 -1.572775,3.28898 -2.219602,6.18537 -2.219602,9.939 0,3.75463 0.645363,6.64364 2.221727,9.94568 2.173563,4.55302 5.848463,8.28503 10.342662,10.50336 2.539552,1.25352 4.908547,1.91892 8.008632,2.24947 0.83326,0.0889 4.092812,-0.0358 5.119438,-0.19583 z M 82.906192,142.65 c -0.779483,-0.18697 -1.284435,-0.83845 -1.379738,-1.78008 -0.03564,-0.35204 -0.05046,-4.0698 -0.03301,-8.26167 0.02904,-6.96651 0.04665,-7.64934 0.205514,-7.94407 0.405315,-0.75218 1.265506,-1.1675 2.001185,-0.96624 0.430704,0.11783 0.945961,0.50497 1.14737,0.86208 0.09365,0.16606 0.136964,1.99101 0.17512,7.37876 l 0.05071,7.15813 6.505982,0.0516 c 6.372501,0.0504 6.511735,0.0558 6.785867,0.26386 1.28494,0.97493 0.916353,2.87848 -0.627812,3.24234 -0.487041,0.11475 -14.351476,0.11046 -14.831149,-0.005 z"
       id="path2679" />
  </g>
</svg>
