<?xml version="1.0" encoding="UTF-8" standalone="no"?>
<!-- Created with Inkscape (http://www.inkscape.org/) -->

<svg
   width="210mm"
   height="297mm"
   viewBox="0 0 210 297"
   version="1.1"
   id="svg1757"
   inkscape:version="1.1.1 (3bf5ae0d25, 2021-09-20)"
   sodipodi:docname="parallel_icon.svg"
   xmlns:inkscape="http://www.inkscape.org/namespaces/inkscape"
   xmlns:sodipodi="http://sodipodi.sourceforge.net/DTD/sodipodi-0.dtd"
   xmlns="http://www.w3.org/2000/svg"
   xmlns:svg="http://www.w3.org/2000/svg">
  <sodipodi:namedview
     id="namedview1759"
     pagecolor="#ffffff"
     bordercolor="#111111"
     borderopacity="1"
     inkscape:pageshadow="0"
     inkscape:pageopacity="0"
     inkscape:pagecheckerboard="1"
     inkscape:document-units="mm"
     showgrid="false"
     inkscape:zoom="0.64052329"
     inkscape:cx="396.55076"
     inkscape:cy="561.25984"
     inkscape:window-width="2560"
     inkscape:window-height="1377"
     inkscape:window-x="2552"
     inkscape:window-y="-8"
     inkscape:window-maximized="1"
     inkscape:current-layer="layer1" />
  <defs
     id="defs1754" />
  <g
     inkscape:label="Ebene 1"
     inkscape:groupmode="layer"
     id="layer1">
    <path
       style="fill:#000000;stroke-width:0.205606"
       d="m 93.792447,197.27442 c -0.294836,-0.10962 -0.762435,-0.39361 -1.039093,-0.63102 -1.156528,-0.99245 -1.10567,-0.0847 -1.10567,-19.73623 V 158.6672 l -20.036802,-0.0521 c -19.858042,-0.0517 -20.042079,-0.0558 -20.628983,-0.45866 -0.325706,-0.22359 -0.791174,-0.65136 -1.034375,-0.95076 -0.432483,-0.53241 -0.442179,-0.75555 -0.442179,-10.1741 0,-9.46204 0.0082,-9.63943 0.448646,-10.18627 0.246773,-0.30609 0.767707,-0.75609 1.157656,-1.00002 l 0.709012,-0.44351 h 19.91026 19.910258 l 0.05691,-18.4159 c 0.05623,-18.251604 0.06093,-18.420731 0.499048,-18.960178 0.243074,-0.299335 0.708683,-0.727162 1.034443,-0.95067 0.579276,-0.397504 0.822076,-0.406406 11.069552,-0.406406 10.29491,0 10.48787,0.0061 11.08284,0.41234 0.33301,0.226734 0.82265,0.705619 1.08808,1.064007 l 0.48252,0.651626 v 18.299651 18.29956 l 20.0368,0.0524 c 19.85803,0.0516 20.04206,0.0558 20.62901,0.45867 0.3257,0.22358 0.79117,0.65136 1.03436,0.95077 0.43247,0.53239 0.44215,0.75552 0.44215,10.17405 0,9.46208 -0.007,9.63944 -0.44862,10.18629 -0.24678,0.30609 -0.76772,0.75609 -1.15765,1.00003 l -0.70899,0.44349 h -19.9103 -19.91023 l -0.0569,18.41593 c -0.0562,18.25158 -0.0607,18.42074 -0.49902,18.96016 -0.24309,0.29935 -0.70862,0.72718 -1.03422,0.95069 -0.57662,0.39578 -0.85908,0.40743 -10.81723,0.44611 -6.49971,0.025 -10.420496,-0.0329 -10.761257,-0.15953 z"
       id="path4341" />
  </g>
</svg>
