<?xml version="1.0" encoding="UTF-8" standalone="no"?>
<!-- Created with Inkscape (http://www.inkscape.org/) -->

<svg
   width="210mm"
   height="297mm"
   viewBox="0 0 210 297"
   version="1.1"
   id="svg895"
   inkscape:version="1.1.1 (3bf5ae0d25, 2021-09-20)"
   sodipodi:docname="file.svg"
   xmlns:inkscape="http://www.inkscape.org/namespaces/inkscape"
   xmlns:sodipodi="http://sodipodi.sourceforge.net/DTD/sodipodi-0.dtd"
   xmlns="http://www.w3.org/2000/svg"
   xmlns:svg="http://www.w3.org/2000/svg">
  <sodipodi:namedview
     id="namedview897"
     pagecolor="#ffffff"
     bordercolor="#111111"
     borderopacity="1"
     inkscape:pageshadow="0"
     inkscape:pageopacity="0"
     inkscape:pagecheckerboard="1"
     inkscape:document-units="mm"
     showgrid="false"
     inkscape:zoom="0.90583672"
     inkscape:cx="280.40374"
     inkscape:cy="576.81477"
     inkscape:window-width="2560"
     inkscape:window-height="1377"
     inkscape:window-x="2552"
     inkscape:window-y="-8"
     inkscape:window-maximized="1"
     inkscape:current-layer="layer1" />
  <defs
     id="defs892" />
  <g
     inkscape:label="Ebene 1"
     inkscape:groupmode="layer"
     id="layer1">
    <path
       style="fill:#000000;stroke-width:1.53669"
       d="M 48.242768,209.93303 C 28.612075,208.32439 10.305346,205.42264 5.2636066,203.12183 L 1.9179053,201.5947 2.287177,144.81545 2.6564485,88.036206 8.4134587,86.036227 C 34.63644,76.925779 175.41927,76.908682 201.61751,86.014892 l 5.82593,2.02445 v 57.092418 57.09248 l -5.65513,1.96458 c -15.91144,5.52923 -112.219589,9.13287 -153.545707,5.74514 z m 131.147842,-3.4144 c 9.2575,-1.09557 19.04098,-2.85877 21.74106,-3.91859 l 4.90931,-1.92678 0.37026,-54.47588 0.37027,-54.476022 -3.87693,1.17914 C 170.25484,102.83733 39.899794,102.7405 6.7518319,92.761458 L 3.3578713,91.739371 v 53.996649 c 0,61.03633 -1.0118981,56.07813 11.9225337,58.41951 30.77156,5.57022 125.502425,6.93768 164.110135,2.36905 z M 181.49458,95.464598 C 217.95943,90.3366 209.80652,85.660995 157.64952,81.789494 103.11922,77.741868 -3.5515051,83.856085 6.2881441,90.465271 16.830258,97.546518 141.41274,101.10122 181.49458,95.464598 Z"
       id="path2369" />
    <path
       style="fill:#ffffff;stroke-width:0.331335"
       d="M 75.659319,208.58358 C 52.200075,207.78189 34.844026,206.60212 22.128602,204.94483 13.672111,203.84258 9.0143883,202.95335 7.7246519,202.19487 5.6212906,200.95779 4.5753933,198.14859 3.9560375,192.07268 3.6202695,188.77731 3.152973,92.066588 3.4729558,92.066588 c 0.084593,0 1.6039278,0.41142 3.3765745,0.91406 17.8074807,5.05027 58.2192927,7.791862 107.8236897,7.314912 12.22585,-0.11699 25.63124,-0.380922 29.78966,-0.585212 30.90807,-1.5201 48.26841,-3.54959 59.53881,-6.96038 1.30837,-0.39581 2.44288,-0.64337 2.52107,-0.54902 0.078,0.0944 -0.005,19.581632 -0.1876,43.306002 -0.18148,23.72445 -0.32917,48.04793 -0.32829,54.05227 l 9.8e-4,10.91691 -3.55357,1.33151 c -7.97008,2.98631 -23.18314,5.03155 -48.01128,6.4549 -8.33342,0.4781 -67.185485,0.718 -78.783916,0.32133 z"
       id="path2463" />
    <path
       style="fill:#ffffff;stroke-width:0.331335"
       d="M 99.702764,97.847918 C 51.541879,97.174048 12.646949,94.052248 6.6289167,90.37781 5.546027,89.716697 5.5800857,89.421408 6.8213529,88.711008 14.214593,84.479453 64.489756,80.810325 114.97588,80.817914 c 20.6401,0.0029 31.18895,0.308562 44.15528,1.278439 27.67631,2.070271 44.45767,4.818251 44.45767,7.279792 0,2.513263 -17.94788,6.054423 -37.50171,7.399183 -15.16362,1.04279 -39.92382,1.44293 -66.384128,1.07259 z"
       id="path2502" />
  </g>
</svg>
