<?xml version="1.0" encoding="UTF-8" standalone="no"?>
<!-- Created with Inkscape (http://www.inkscape.org/) -->

<svg
   width="210mm"
   height="297mm"
   viewBox="0 0 210 297"
   version="1.1"
   id="svg3373"
   inkscape:version="1.1.1 (3bf5ae0d25, 2021-09-20)"
   sodipodi:docname="product.svg"
   xmlns:inkscape="http://www.inkscape.org/namespaces/inkscape"
   xmlns:sodipodi="http://sodipodi.sourceforge.net/DTD/sodipodi-0.dtd"
   xmlns="http://www.w3.org/2000/svg"
   xmlns:svg="http://www.w3.org/2000/svg">
  <sodipodi:namedview
     id="namedview3375"
     pagecolor="#ffffff"
     bordercolor="#111111"
     borderopacity="1"
     inkscape:pageshadow="0"
     inkscape:pageopacity="0"
     inkscape:pagecheckerboard="1"
     inkscape:document-units="mm"
     showgrid="false"
     inkscape:zoom="0.70710678"
     inkscape:cx="188.6427"
     inkscape:cy="372.36599"
     inkscape:window-width="2560"
     inkscape:window-height="1377"
     inkscape:window-x="2552"
     inkscape:window-y="-8"
     inkscape:window-maximized="1"
     inkscape:current-layer="layer1" />
  <defs
     id="defs3370" />
  <g
     inkscape:label="Ebene 1"
     inkscape:groupmode="layer"
     id="layer1">
    <path
       style="fill:#70e9cc;fill-opacity:1;stroke-width:0.0172492"
       d=""
       id="path7202"
       transform="scale(0.26458333)" />
    <g
       id="g18984"
       transform="matrix(16.409596,0,0,15.268079,-999.00218,-669.29824)">
      <path
         style="fill:#6fe8cb;stroke-width:0.0846667"
         d="m 61.015289,54.192444 v -0.25335 l 5.185833,-0.02248 5.185833,-0.02248 -5.187517,-0.0205 -5.187517,-0.0205 0.02285,-1.794373 0.02285,-1.794373 3.090948,-1.211239 3.090947,-1.211238 3.132053,1.21122 3.132052,1.21122 0.02265,2.090725 0.02265,2.090725 h -6.266813 -6.266812 z"
         id="path18988" />
      <path
         style="fill:#000000;stroke-width:0.0846667"
         d="m 60.930622,52.380653 v -2.149807 l 0.3175,-0.125883 c 0.174625,-0.06924 1.51765,-0.595079 2.9845,-1.16854 1.46685,-0.573462 2.6797,-1.073401 2.695222,-1.110977 0.044,-0.106505 0.386214,-0.08046 0.65727,0.05003 0.135213,0.06509 1.503141,0.602315 3.039841,1.193831 1.5367,0.591516 2.841625,1.114425 2.899834,1.16202 0.07951,0.06501 0.105833,0.610393 0.105833,2.192836 v 2.106299 h -6.35 -6.35 z m 12.595646,-0.02558 -0.02265,-2.090725 -3.132052,-1.21122 -3.132053,-1.21122 -3.090947,1.211238 -3.090948,1.211239 -0.02285,1.794373 -0.02285,1.794373 5.187517,0.0205 5.187517,0.0205 -5.185833,0.02248 -5.185833,0.02248 v 0.25335 0.253349 h 6.266812 6.266813 z"
         id="path18986" />
    </g>
    <path
       style="fill:none;stroke:#000000;stroke-width:0.954042px;stroke-linecap:butt;stroke-linejoin:miter;stroke-opacity:1"
       d="M 172.4289,153.56159 32.937205,153.48452"
       id="path19467" />
  </g>
</svg>
