<svg width="49" height="48" viewBox="0 0 49 48" fill="none" xmlns="http://www.w3.org/2000/svg">
<rect width="49" height="48" rx="4" fill="#0A6ED1"/>
<mask id="mask0_93_13418" style="mask-type:alpha" maskUnits="userSpaceOnUse" x="0" y="0" width="49" height="48">
<rect width="49" height="48" rx="4" fill="white"/>
</mask>
<g mask="url(#mask0_93_13418)">
<path d="M34.5547 23.7812C34.6849 23.9896 34.75 24.1458 34.75 24.25C34.75 24.3542 34.6849 24.5104 34.5547 24.7188L31.7031 27.5312C31.5469 27.6875 31.3906 27.7656 31.2344 27.7656C31.2344 27.7656 31.1823 27.7656 31.0781 27.7656C31 27.7396 30.9089 27.6745 30.8047 27.5703C30.7005 27.4401 30.6354 27.3359 30.6094 27.2578C30.6094 27.1536 30.6094 27.0885 30.6094 27.0625C30.6094 26.9062 30.6745 26.763 30.8047 26.6328L32.6016 24.875H30.0234C28.9036 24.875 27.849 25.1354 26.8594 25.6562C25.8958 26.151 25.0885 26.8542 24.4375 27.7656C23.7083 28.8594 22.7839 29.7318 21.6641 30.3828C20.5443 31.0078 19.2812 31.3333 17.875 31.3594C17.6146 31.3594 17.4453 31.3073 17.3672 31.2031C17.2891 31.0729 17.25 30.9167 17.25 30.7344C17.25 30.5521 17.2891 30.4089 17.3672 30.3047C17.4453 30.1745 17.6146 30.1094 17.875 30.1094C19.151 30.0573 20.2188 29.7708 21.0781 29.25C21.9635 28.7292 22.7448 28 23.4219 27.0625C24.3333 25.7604 25.4922 24.8229 26.8984 24.25C25.4922 23.6771 24.3333 22.7396 23.4219 21.4375C22.7708 20.5 21.9766 19.7578 21.0391 19.2109C20.1276 18.6641 19.0859 18.3906 17.9141 18.3906C17.6276 18.3906 17.4453 18.3385 17.3672 18.2344C17.2891 18.1042 17.25 17.9479 17.25 17.7656C17.25 17.6094 17.2891 17.4661 17.3672 17.3359C17.4453 17.2057 17.6146 17.1406 17.875 17.1406C19.2031 17.1406 20.4401 17.4661 21.5859 18.1172C22.7578 18.7682 23.7083 19.6406 24.4375 20.7344C25.0885 21.6458 25.8958 22.349 26.8594 22.8438C27.849 23.3385 28.9036 23.599 30.0234 23.625H32.6016L30.8047 21.8672C30.6745 21.737 30.6094 21.5938 30.6094 21.4375C30.6094 21.4115 30.6094 21.3594 30.6094 21.2812C30.6354 21.1771 30.7005 21.0729 30.8047 20.9688C30.9089 20.8385 31 20.7734 31.0781 20.7734C31.1823 20.7474 31.2344 20.7344 31.2344 20.7344C31.3906 20.7344 31.5469 20.8125 31.7031 20.9688L34.5547 23.7812Z" fill="white"/>
</g>
</svg>
